<svg width="30" height="30" viewBox="0 0 30 30" fill="none" xmlns="http://www.w3.org/2000/svg">
<circle cx="15" cy="15" r="15" fill="white"/>
<path d="M17.88 15C17.88 15.5696 17.7111 16.1264 17.3946 16.6C17.0782 17.0737 16.6284 17.4428 16.1021 17.6608C15.5759 17.8788 14.9968 17.9358 14.4381 17.8247C13.8795 17.7135 13.3663 17.4392 12.9635 17.0365C12.5608 16.6337 12.2865 16.1205 12.1753 15.5619C12.0642 15.0032 12.1212 14.4241 12.3392 13.8979C12.5572 13.3716 12.9263 12.9218 13.4 12.6054C13.8736 12.2889 14.4304 12.12 15 12.12C15.7631 12.1224 16.4943 12.4266 17.0338 12.9662C17.5734 13.5057 17.8776 14.2369 17.88 15ZM24 11.04V18.96C24 20.2967 23.469 21.5786 22.5238 22.5238C21.5786 23.469 20.2967 24 18.96 24H11.04C9.70331 24 8.42137 23.469 7.47618 22.5238C6.531 21.5786 6 20.2967 6 18.96V11.04C6 9.70331 6.531 8.42137 7.47618 7.47618C8.42137 6.531 9.70331 6 11.04 6H18.96C20.2967 6 21.5786 6.531 22.5238 7.47618C23.469 8.42137 24 9.70331 24 11.04ZM19.32 15C19.32 14.1456 19.0666 13.3104 18.5919 12.5999C18.1173 11.8895 17.4426 11.3358 16.6532 11.0088C15.8638 10.6819 14.9952 10.5963 14.1572 10.763C13.3192 10.9297 12.5495 11.3411 11.9453 11.9453C11.3411 12.5495 10.9297 13.3192 10.763 14.1572C10.5963 14.9952 10.6819 15.8638 11.0088 16.6532C11.3358 17.4426 11.8895 18.1173 12.5999 18.5919C13.3104 19.0666 14.1456 19.32 15 19.32C16.1457 19.32 17.2445 18.8649 18.0547 18.0547C18.8649 17.2445 19.32 16.1457 19.32 15ZM20.76 10.32C20.76 10.1064 20.6967 9.89759 20.578 9.71998C20.4593 9.54238 20.2906 9.40395 20.0933 9.32221C19.896 9.24047 19.6788 9.21908 19.4693 9.26075C19.2598 9.30242 19.0674 9.40528 18.9163 9.55632C18.7653 9.70737 18.6624 9.8998 18.6208 10.1093C18.5791 10.3188 18.6005 10.536 18.6822 10.7333C18.764 10.9306 18.9024 11.0993 19.08 11.218C19.2576 11.3367 19.4664 11.4 19.68 11.4C19.9664 11.4 20.2411 11.2862 20.4437 11.0837C20.6462 10.8811 20.76 10.6064 20.76 10.32Z" fill="#100C24"/>
</svg>
