<svg width="20" height="26" viewBox="0 0 20 26" fill="none" xmlns="http://www.w3.org/2000/svg">
<circle cx="10" cy="11" r="6" fill="white"/>
<path d="M10 13C10.6875 13 11.2762 12.7452 11.7663 12.2356C12.2554 11.7269 12.5 11.115 12.5 10.4C12.5 9.685 12.2554 9.0727 11.7663 8.5631C11.2762 8.05437 10.6875 7.8 10 7.8C9.3125 7.8 8.72417 8.05437 8.235 8.5631C7.745 9.0727 7.5 9.685 7.5 10.4C7.5 11.115 7.745 11.7269 8.235 12.2356C8.72417 12.7452 9.3125 13 10 13ZM10 26C6.64583 23.0317 4.14083 20.2744 2.485 17.7281C0.828333 15.1827 0 12.8267 0 10.66C0 7.41 1.00542 4.82083 3.01625 2.8925C5.02625 0.964166 7.35417 0 10 0C12.6458 0 14.9738 0.964166 16.9837 2.8925C18.9946 4.82083 20 7.41 20 10.66C20 12.8267 19.1721 15.1827 17.5163 17.7281C15.8596 20.2744 13.3542 23.0317 10 26Z" fill="#D52D2D"/>
</svg>
