<svg width="30" height="30" viewBox="0 0 30 30" fill="none" xmlns="http://www.w3.org/2000/svg">
<path d="M23.0072 13.3273V13.9542H21.8091C21.0917 13.9542 20.3765 13.8209 19.7234 13.5238C19.3609 13.3587 19.0229 13.1521 18.721 12.9076V18.3286C18.6498 22.5595 15.8302 24.4295 12.396 24.1651C9.51684 23.9433 7.19494 21.6033 7.00576 18.722C6.78223 15.3169 9.48597 12.475 12.844 12.475C12.9532 12.475 13.0503 12.4821 13.141 12.4884L13.292 12.5005V16.3694L13.0843 16.3413C13.0531 16.3379 13.0335 16.3345 13.0025 16.3304C12.9409 16.3219 12.8877 16.3168 12.8499 16.3168C11.6846 16.3168 10.7471 17.3143 10.8392 18.4978C10.9231 19.5748 11.8756 20.4108 12.9545 20.36C14.0593 20.3079 14.9734 19.438 14.9734 18.3954L15.0008 5.81069H18.6781L18.7505 6.35321C18.9498 8.24911 20.486 9.69288 22.3873 9.83187L23.0072 9.87573V13.3273ZM15 0C6.7159 0 0 6.7159 0 15C0 23.2843 6.7159 30 15 30C23.2843 30 30 23.2843 30 15C30 6.7159 23.2843 0 15 0Z" fill="white"/>
</svg>
