<svg width="32" height="32" viewBox="0 0 32 32" fill="none" xmlns="http://www.w3.org/2000/svg">
<rect width="32" height="32" rx="16" fill="#0A2515" fill-opacity="0.05"/>
<path d="M17.6459 17.0042V24H14.5306V17.0042H12V14.1102H14.5306V11.9063C14.4763 11.391 14.5354 10.8701 14.7039 10.3803C14.8723 9.89058 15.1459 9.444 15.5053 9.07225C15.8647 8.7005 16.3011 8.41267 16.7835 8.22914C17.266 8.04561 17.7828 7.97085 18.2972 8.01021C19.0447 8.02064 19.7904 8.08587 20.5284 8.20538V10.6674H19.2709C19.0568 10.6389 18.839 10.6592 18.6337 10.7267C18.4283 10.7942 18.2407 10.9072 18.0847 11.0573C17.9287 11.2073 17.8084 11.3907 17.7324 11.5939C17.6565 11.797 17.627 12.0147 17.6461 12.2308V14.1102H20.412L19.9688 17.0058L17.6459 17.0042Z" fill="#0A2515"/>
</svg>
