<svg width="32" height="32" viewBox="0 0 32 32" fill="none" xmlns="http://www.w3.org/2000/svg">
<rect width="32" height="32" rx="16" fill="#0A2515" fill-opacity="0.05"/>
<path d="M10.6985 11.4014C11.6366 11.4014 12.3971 10.64 12.3971 9.70071C12.3971 8.76143 11.6366 8 10.6985 8C9.76046 8 9 8.76143 9 9.70071C9 10.64 9.76046 11.4014 10.6985 11.4014Z" fill="#0A2515"/>
<path d="M13.9527 12.6583H16.7677V13.9495C16.7677 13.9495 17.5316 12.4198 19.61 12.4198C21.4641 12.4198 23 13.3343 23 16.1219V22H20.0828V16.8341C20.0828 15.1897 19.206 15.0089 18.5379 15.0089C17.1514 15.0089 16.914 16.2064 16.914 17.0486V22H13.9527V12.6583Z" fill="#0A2515"/>
<path d="M9.21788 12.6583H12.1792V22H9.21788V12.6583Z" fill="#0A2515"/>
</svg>
