<svg width="32" height="32" viewBox="0 0 32 32" fill="none" xmlns="http://www.w3.org/2000/svg">
<rect width="32" height="32" rx="16" fill="#0A2515" fill-opacity="0.05"/>
<g clip-path="url(#clip0_203_673)">
<path d="M14.6667 16.6667C14.953 17.0495 15.3183 17.3662 15.7377 17.5954C16.1572 17.8245 16.621 17.9608 17.0978 17.9949C17.5745 18.0291 18.0531 17.9603 18.5009 17.7932C18.9488 17.6262 19.3554 17.3648 19.6934 17.0267L21.6934 15.0267C22.3005 14.3981 22.6365 13.556 22.6289 12.6821C22.6213 11.8081 22.2708 10.972 21.6527 10.354C21.0347 9.73597 20.1987 9.38541 19.3247 9.37781C18.4507 9.37022 17.6087 9.7062 16.98 10.3134L15.8334 11.4534" stroke="#0A2515" stroke-width="1.5" stroke-linecap="round" stroke-linejoin="round"/>
<path d="M17.3333 15.3333C17.047 14.9506 16.6818 14.6339 16.2623 14.4047C15.8428 14.1755 15.379 14.0392 14.9022 14.0051C14.4255 13.971 13.947 14.0397 13.4991 14.2068C13.0513 14.3739 12.6446 14.6353 12.3067 14.9733L10.3067 16.9733C9.69948 17.602 9.3635 18.444 9.3711 19.318C9.37869 20.192 9.72926 21.028 10.3473 21.646C10.9653 22.2641 11.8014 22.6146 12.6753 22.6222C13.5493 22.6298 14.3913 22.2938 15.02 21.6867L16.16 20.5467" stroke="#0A2515" stroke-width="1.5" stroke-linecap="round" stroke-linejoin="round"/>
</g>
<defs>
<clipPath id="clip0_203_673">
<rect width="16" height="16" fill="white" transform="translate(8 8)"/>
</clipPath>
</defs>
</svg>
