<svg width="32" height="32" viewBox="0 0 32 32" fill="none" xmlns="http://www.w3.org/2000/svg">
<rect width="32" height="32" rx="16" fill="#0A2515" fill-opacity="0.05"/>
<path fill-rule="evenodd" clip-rule="evenodd" d="M21.2411 12.9865C21.2462 13.1184 21.2479 13.2503 21.2479 13.3822C21.2479 17.3822 18.4341 22 13.2887 22C11.7081 22 10.2383 21.4962 9 20.6387C9.2189 20.6627 9.44121 20.6807 9.66692 20.6807C10.9775 20.6807 12.1845 20.1948 13.142 19.3792C11.9179 19.3613 10.8842 18.4797 10.5277 17.2803C10.6989 17.3163 10.8751 17.3343 11.0553 17.3343C11.3095 17.3343 11.5562 17.2984 11.7928 17.2264C10.5118 16.9506 9.54696 15.7272 9.54696 14.2579C9.54696 14.2399 9.54696 14.2339 9.54696 14.2219C9.92448 14.4438 10.3566 14.5817 10.8154 14.5997C10.0638 14.0539 9.56969 13.1244 9.56969 12.0749C9.56969 11.5232 9.70728 11.0015 9.94949 10.5517C11.3288 12.3868 13.391 13.5922 15.7158 13.7181C15.6681 13.4962 15.6436 13.2624 15.6436 13.0285C15.6436 11.3554 16.8962 10 18.4415 10C19.246 10 19.9726 10.3659 20.4826 10.9536C21.1211 10.8216 21.7193 10.5698 22.2605 10.222C22.0507 10.9296 21.6078 11.5232 21.029 11.895C21.5953 11.823 22.1355 11.6612 22.6364 11.4214C22.2605 12.0271 21.7875 12.5607 21.2411 12.9865Z" fill="#0A2515"/>
</svg>
