<svg width="86" height="19" viewBox="0 0 86 19" fill="none" xmlns="http://www.w3.org/2000/svg">
<g clip-path="url(#clip0_1686_11258)">
<path d="M15.1371 0H10.9025C10.9096 1.67956 10.5173 3.33719 9.7572 4.83882C8.99713 6.34046 7.8907 7.64393 6.52738 8.64382L4.85156 9.88528L11.3386 18.6504H16.6832L10.7079 10.5845C12.1186 9.19925 13.2366 7.55002 13.9971 5.73284C14.7575 3.91567 15.145 1.96689 15.1371 0Z" fill="white"/>
<path d="M0 18.6504H4.3355V0H0V18.6504Z" fill="white"/>
<path d="M17.9434 18.6436H22.0266V0.00390625H17.9434V18.6436Z" fill="white"/>
<path d="M57.8392 5.40557C56.2823 5.40557 54.8083 5.8836 53.8245 7.18927V5.75161H49.9395V18.6442H53.8713V11.8661C53.8713 9.90407 55.1976 8.94444 56.7977 8.94444C58.5131 8.94444 59.497 9.95758 59.497 11.8376V18.6442H63.3928V10.4392C63.3928 7.43899 60.9818 5.39844 57.8392 5.39844V5.40557Z" fill="white"/>
<path d="M30.8171 15.5153C29.9045 15.5383 29.0199 15.2018 28.3577 14.5798C27.6955 13.9577 27.3098 13.1009 27.2852 12.1976C27.3352 11.3033 27.7293 10.462 28.3865 9.84648C29.0437 9.23094 29.9141 8.88793 30.8189 8.88793C31.7236 8.88793 32.594 9.23094 33.2512 9.84648C33.9084 10.462 34.3025 11.3033 34.3525 12.1976C34.328 13.1016 33.9418 13.9589 33.2788 14.581C32.6158 15.2032 31.7303 15.5392 30.8171 15.5153V15.5153ZM34.3633 5.75127V6.57534C33.474 5.97562 32.4549 5.59097 31.388 5.45237C30.3211 5.31377 29.2362 5.42509 28.2207 5.77737C27.2052 6.12965 26.2875 6.71305 25.5414 7.48058C24.7953 8.24812 24.2417 9.17835 23.9252 10.1964C23.6086 11.2144 23.538 12.2918 23.719 13.3418C23.9 14.3917 24.3275 15.385 24.9671 16.2415C25.6068 17.0981 26.4407 17.794 27.4016 18.2732C28.3626 18.7524 29.4239 19.0016 30.4999 19.0006C31.8769 19.0086 33.224 18.6031 34.3633 17.8376V18.6617H38.2663V5.75127H34.3633Z" fill="white"/>
<path d="M44.2978 7.43025V5.75H40.3047V18.6426H44.305V12.6244C44.305 10.591 46.5286 9.49934 48.0747 9.49934H48.118V5.75C46.5358 5.75 45.0799 6.42067 44.2978 7.43025V7.43025Z" fill="white"/>
<path d="M71.9619 15.5153C71.0493 15.5383 70.1647 15.2018 69.5025 14.5798C68.8403 13.9577 68.4546 13.1009 68.4301 12.1976C68.4801 11.3033 68.8742 10.462 69.5314 9.84649C70.1886 9.23095 71.059 8.88794 71.9637 8.88794C72.8685 8.88794 73.7389 9.23095 74.3961 9.84649C75.0533 10.462 75.4474 11.3033 75.4973 12.1976C75.4728 13.1016 75.0866 13.9589 74.4236 14.581C73.7606 15.2032 72.8752 15.5392 71.9619 15.5153V15.5153ZM75.5118 5.75127V6.57534C74.4789 5.87877 73.2737 5.47419 72.0258 5.40514C70.7779 5.33608 69.5347 5.60517 68.4298 6.18344C67.3249 6.76171 66.4002 7.62727 65.7553 8.68697C65.1103 9.74668 64.7695 10.9604 64.7695 12.1976C64.7695 13.4347 65.1103 14.6485 65.7553 15.7082C66.4002 16.7679 67.3249 17.6334 68.4298 18.2117C69.5347 18.79 70.7779 19.0591 72.0258 18.99C73.2737 18.921 74.4789 18.5164 75.5118 17.8198V18.6439H79.4112V5.75127H75.5118Z" fill="white"/>
<path d="M83.5519 14.0703C83.0671 14.0696 82.5929 14.2113 82.1894 14.4774C81.7859 14.7435 81.4713 15.1221 81.2852 15.5653C81.0992 16.0086 81.0502 16.4964 81.1443 16.9672C81.2385 17.438 81.4716 17.8706 81.8142 18.2102C82.1568 18.5498 82.5934 18.7812 83.0689 18.8751C83.5444 18.969 84.0373 18.9212 84.4853 18.7377C84.9333 18.5542 85.3163 18.2432 85.5857 17.8442C85.8551 17.4452 85.999 16.9761 85.999 16.4962C85.9994 16.1778 85.9365 15.8624 85.8137 15.5681C85.691 15.2738 85.5108 15.0063 85.2835 14.781C85.0562 14.5557 84.7863 14.377 84.4892 14.255C84.1921 14.1331 83.8736 14.0703 83.5519 14.0703V14.0703Z" fill="white"/>
</g>
<defs>
<clipPath id="clip0_1686_11258">
<rect width="86" height="19" fill="white"/>
</clipPath>
</defs>
</svg>
